<svg xmlns="http://www.w3.org/2000/svg" viewBox="0 0 380 380">
<g><path style="opacity:1" fill="#f7931c" d="M 347.5,151.5 C 347.41,154.152 348.076,156.485 349.5,158.5C 350.381,162.454 351.048,166.454 351.5,170.5C 352.267,180.815 352.601,191.148 352.5,201.5C 351.354,212.233 349.687,222.9 347.5,233.5C 346.076,235.515 345.41,237.848 345.5,240.5C 316.367,316.103 261.034,353.437 179.5,352.5C 174.731,351.111 169.731,350.444 164.5,350.5C 161.061,350.212 157.728,349.546 154.5,348.5C 152.485,347.076 150.152,346.41 147.5,346.5C 93.2857,330.122 56.7857,295.122 38,241.5C 32.2086,221.59 29.7086,201.256 30.5,180.5C 31.889,175.731 32.5557,170.731 32.5,165.5C 43.1045,109.487 74.1045,68.9868 125.5,44C 180.786,22.0622 233.453,27.0622 283.5,59C 316.078,82.074 337.411,112.907 347.5,151.5 Z"/></g>
<g><path style="opacity:1" fill="#ffffff" d="M 238.5,229.5 C 238.56,230.043 238.893,230.376 239.5,230.5C 240.48,227.914 240.813,225.247 240.5,222.5C 246.349,183.713 253.016,145.046 260.5,106.5C 272.11,108.824 283.776,110.824 295.5,112.5C 284.72,176.175 273.72,239.842 262.5,303.5C 253.579,303.116 244.912,301.449 236.5,298.5C 207.828,249.826 179.661,200.826 152,151.5C 144.626,194.409 137.46,237.409 130.5,280.5C 119.121,278.989 107.787,277.156 96.5,275C 95.3159,273.82 94.6493,272.32 94.5,270.5C 105.747,208.182 116.747,145.849 127.5,83.5C 135.463,84.8589 143.463,86.0255 151.5,87C 154.007,87.0929 156.174,87.9262 158,89.5C 185.098,136.031 211.931,182.698 238.5,229.5 Z"/></g>
</svg>
