<?xml version="1.0" encoding="UTF-8"?>
<!DOCTYPE svg PUBLIC "-//W3C//DTD SVG 1.1//EN" "http://www.w3.org/Graphics/SVG/1.1/DTD/svg11.dtd">
<svg xmlns="http://www.w3.org/2000/svg" version="1.1" width="384px" height="384px" style="shape-rendering:geometricPrecision; text-rendering:geometricPrecision; image-rendering:optimizeQuality; fill-rule:evenodd; clip-rule:evenodd" xmlns:xlink="http://www.w3.org/1999/xlink">
<g><path style="opacity:1" fill="#fffefe" d="M -0.5,-0.5 C 127.5,-0.5 255.5,-0.5 383.5,-0.5C 383.5,127.5 383.5,255.5 383.5,383.5C 255.5,383.5 127.5,383.5 -0.5,383.5C -0.5,255.5 -0.5,127.5 -0.5,-0.5 Z"/></g>
<g><path style="opacity:1" fill="#f7931c" d="M 347.5,151.5 C 347.41,154.152 348.076,156.485 349.5,158.5C 350.381,162.454 351.048,166.454 351.5,170.5C 352.267,180.815 352.601,191.148 352.5,201.5C 351.354,212.233 349.687,222.9 347.5,233.5C 346.076,235.515 345.41,237.848 345.5,240.5C 316.367,316.103 261.034,353.437 179.5,352.5C 174.731,351.111 169.731,350.444 164.5,350.5C 161.061,350.212 157.728,349.546 154.5,348.5C 152.485,347.076 150.152,346.41 147.5,346.5C 93.2857,330.122 56.7857,295.122 38,241.5C 32.2086,221.59 29.7086,201.256 30.5,180.5C 31.889,175.731 32.5557,170.731 32.5,165.5C 43.1045,109.487 74.1045,68.9868 125.5,44C 180.786,22.0622 233.453,27.0622 283.5,59C 316.078,82.074 337.411,112.907 347.5,151.5 Z"/></g>
<g><path style="opacity:1" fill="#fffdfc" d="M 238.5,229.5 C 238.56,230.043 238.893,230.376 239.5,230.5C 240.48,227.914 240.813,225.247 240.5,222.5C 246.349,183.713 253.016,145.046 260.5,106.5C 272.11,108.824 283.776,110.824 295.5,112.5C 284.72,176.175 273.72,239.842 262.5,303.5C 253.579,303.116 244.912,301.449 236.5,298.5C 207.828,249.826 179.661,200.826 152,151.5C 144.626,194.409 137.46,237.409 130.5,280.5C 119.121,278.989 107.787,277.156 96.5,275C 95.3159,273.82 94.6493,272.32 94.5,270.5C 105.747,208.182 116.747,145.849 127.5,83.5C 135.463,84.8589 143.463,86.0255 151.5,87C 154.007,87.0929 156.174,87.9262 158,89.5C 185.098,136.031 211.931,182.698 238.5,229.5 Z"/></g>
<g><path style="opacity:1" fill="#fabb75" d="M 347.5,151.5 C 348.924,153.515 349.59,155.848 349.5,158.5C 348.076,156.485 347.41,154.152 347.5,151.5 Z"/></g>
<g><path style="opacity:1" fill="#fabb75" d="M 32.5,165.5 C 32.5557,170.731 31.889,175.731 30.5,180.5C 30.4443,175.269 31.111,170.269 32.5,165.5 Z"/></g>
<g><path style="opacity:1" fill="#fcdcb7" d="M 351.5,170.5 C 352.972,176.601 353.639,182.935 353.5,189.5C 353.499,193.681 353.166,197.681 352.5,201.5C 352.601,191.148 352.267,180.815 351.5,170.5 Z"/></g>
<g><path style="opacity:1" fill="#fac68b" d="M 240.5,222.5 C 240.813,225.247 240.48,227.914 239.5,230.5C 238.893,230.376 238.56,230.043 238.5,229.5C 239.167,227.167 239.833,224.833 240.5,222.5 Z"/></g>
<g><path style="opacity:1" fill="#fddcbb" d="M 347.5,233.5 C 347.59,236.152 346.924,238.485 345.5,240.5C 345.41,237.848 346.076,235.515 347.5,233.5 Z"/></g>
<g><path style="opacity:1" fill="#fab263" d="M 147.5,346.5 C 150.152,346.41 152.485,347.076 154.5,348.5C 151.848,348.59 149.515,347.924 147.5,346.5 Z"/></g>
<g><path style="opacity:1" fill="#f9b76c" d="M 164.5,350.5 C 169.731,350.444 174.731,351.111 179.5,352.5C 174.269,352.556 169.269,351.889 164.5,350.5 Z"/></g>
</svg>
