<?xml version="1.0" standalone="no"?>
<!DOCTYPE svg PUBLIC "-//W3C//DTD SVG 20010904//EN"
 "http://www.w3.org/TR/2001/REC-SVG-20010904/DTD/svg10.dtd">
<svg version="1.0" xmlns="http://www.w3.org/2000/svg"
 width="400.000000pt" height="400.000000pt" viewBox="0 0 400.000000 400.000000"
 preserveAspectRatio="xMidYMid meet">
<metadata>
Created by potrace 1.14, written by Peter Selinger 2001-2017
</metadata>
<g transform="translate(0.000000,400.000000) scale(0.100000,-0.100000)"
fill="#000000" stroke="none">
<path d="M1760 3985 c-437 -54 -832 -243 -1149 -549 -623 -601 -788 -1536
-407 -2311 443 -902 1467 -1335 2421 -1024 419 137 801 430 1048 804 384 584
432 1342 123 1970 -308 627 -900 1040 -1598 1115 -126 13 -306 11 -438 -5z
m516 -1535 c167 -487 307 -892 311 -900 8 -19 18 35 194 1002 l144 788 223 0
223 0 -6 -32 c-4 -18 -113 -611 -244 -1318 l-238 -1285 -459 -3 -459 -2 -284
865 c-157 476 -288 862 -291 858 -4 -5 -73 -372 -154 -818 -81 -445 -152 -831
-158 -857 l-10 -48 -220 0 -220 0 5 23 c3 12 107 582 231 1267 125 685 231
1269 237 1298 l10 52 431 -2 430 -3 304 -885z"/>
</g>
</svg>
