<?xml version="1.0" standalone="no"?>
<!DOCTYPE svg PUBLIC "-//W3C//DTD SVG 20010904//EN"
 "http://www.w3.org/TR/2001/REC-SVG-20010904/DTD/svg10.dtd">
<svg version="1.0" xmlns="http://www.w3.org/2000/svg"
 width="500.000000pt" height="500.000000pt" viewBox="0 0 500.000000 500.000000"
 preserveAspectRatio="xMidYMid meet">
<metadata>
Created by potrace 1.14, written by Peter Selinger 2001-2017
</metadata>
<g transform="translate(0.000000,500.000000) scale(0.100000,-0.100000)"
fill="#000000" stroke="none">
<path d="M2340 4594 c-909 -83 -1642 -698 -1871 -1568 -50 -190 -64 -308 -63
-536 0 -227 20 -373 74 -563 208 -722 780 -1279 1499 -1462 310 -78 640 -85
956 -20 625 130 1167 552 1450 1130 135 276 200 536 212 845 18 485 -126 949
-415 1337 -78 104 -248 281 -348 364 -285 233 -627 387 -999 449 -116 20 -394
33 -495 24z m-453 -720 l163 -28 487 -840 c268 -463 511 -882 539 -933 l51
-92 11 107 c12 112 248 1475 260 1503 6 14 31 12 232 -24 124 -22 226 -40 227
-41 4 -3 -434 -2477 -439 -2482 -11 -11 -313 48 -329 65 -15 15 -1045 1793
-1087 1876 l-20 40 -6 -45 c-23 -180 -51 -346 -157 -950 -66 -377 -121 -686
-122 -687 -2 -1 -461 79 -464 81 -3 2 422 2424 432 2465 5 19 11 22 33 18 15
-3 100 -17 189 -33z"/>
</g>
</svg>
